# xmcd CD database file
#
# Track frame offsets:
#	150
#	17084
#	29457
#	54232
#
# Disc length: 1165 seconds
#
# Revision: 0
# Processed by: cddbd v1.5PL3 Copyright (c) Steve Scherf et al.
# Submitted via: CDex 1.50
#
DISCID=27048b04
DTITLE=hell is for heroes - Retreat
DYEAR=2003
DGENRE=Rock
TTITLE0=Retreat
TTITLE1=We're Making It Up
TTITLE2=Boys Don't Cry
TTITLE3=Retreat (Enhanced Video)
EXTD=YEAR: 2003
EXTT0=
EXTT1=
EXTT2=
EXTT3=
PLAYORDER=
